%
M48
M72
T01C0.03150
T02C0.03200
T03C0.03937
T04C0.04000
T05C0.07480
%
T01
X66000Y51800
X46000Y76800
X66000Y80775
X46311Y102111
X46000Y111800
X56000Y121800
X36000Y126800
X36000Y136800
X66000Y154300
X66000Y166721
X62850Y171446
X59701Y166721
X69150Y171446
X72299Y166721
X91000Y146800
X103126Y189300
X111000Y189300
X118874Y189300
X91000Y101800
T02
X26000Y116800
X36000Y116800
X36000Y76800
X26000Y76800
X26000Y51800
X36000Y36800
X46000Y36800
X26000Y11800
X86000Y11800
X86000Y21800
X101000Y16800
X101000Y26800
X101000Y36800
X101000Y46800
X101000Y56800
X101000Y66800
X101000Y76800
X101000Y86800
X101000Y96800
X101000Y106800
X101000Y116800
X101000Y126800
X101000Y136800
X101000Y146800
X91000Y171800
X131000Y171800
X146000Y171800
X156000Y181800
X161000Y189300
X166000Y181800
X181000Y186800
X191000Y186800
X196000Y161800
X176000Y161800
X161000Y161800
X161000Y151800
X146000Y146800
X146000Y136800
X131000Y136800
X131000Y146800
X146000Y161800
X131000Y126800
X131000Y116800
X131000Y106800
X131000Y96800
X131000Y86800
X131000Y76800
X131000Y66800
X131000Y56800
X131000Y46800
X131000Y36800
X131000Y26800
X131000Y16800
X146000Y66800
X146000Y86800
X146000Y96800
X166000Y66800
T03
X95252Y189300
X126748Y189300
T04
X11000Y186800
X11000Y176800
X11000Y166800
X11000Y156800
X11000Y146800
X11000Y136800
X11000Y126800
X11000Y116800
X11000Y106800
X11000Y96800
X11000Y86800
X11000Y76800
X11000Y66800
X56000Y66800
X56000Y46800
X86000Y56800
X86000Y66800
X86000Y76800
X33500Y161800
X33500Y181800
X198500Y136800
X198500Y126800
X198500Y116800
X198500Y106800
X198500Y96800
X198500Y86800
X198500Y76800
X198500Y66800
T05
X51630Y186800
X80370Y186800
M30
